<svg xmlns="http://www.w3.org/2000/svg" viewBox="0 0 512 512">
  <defs>
    <linearGradient id="bg" x1="0" y1="0" x2="1" y2="1">
      <stop offset="0%" stop-color="#171a21" />
      <stop offset="100%" stop-color="#0f1116" />
    </linearGradient>
  </defs>
  <rect width="512" height="512" rx="112" fill="url(#bg)" />
  <circle cx="256" cy="256" r="150" fill="#f0c35f" opacity="0.18" />
  <path
    d="M256 118c-55 0-100 45-100 100v52h-24c-18 0-32 14-32 32v68c0 18 14 32 32 32h248c18 0 32-14 32-32v-68c0-18-14-32-32-32h-24v-52c0-55-45-100-100-100zm-56 152v-52c0-31 25-56 56-56s56 25 56 56v52H200zm56 49c19 0 34 15 34 34s-15 34-34 34-34-15-34-34 15-34 34-34z"
    fill="#f0c35f"
  />
</svg>
